<svg xmlns="http://www.w3.org/2000/svg" viewBox="0 0 440 440" width="440" height="440" role="img" aria-label="muhammadashir0 · language mix" font-family="ui-sans-serif,-apple-system,Segoe UI,Helvetica,Arial,sans-serif"><style>.grid { fill: none; stroke-width: 1; }.spoke { stroke-width: 1; }.data-fill { fill-opacity: 0.22; }.data-stroke { fill: none; stroke-width: 2; }.vertex { stroke-width: 2; }</style><text x="220.0" y="21" text-anchor="middle" font-size="15" font-weight="700" fill="#1f2328">muhammadashir0 · language mix</text><g transform="translate(0, 0)"><polygon points="220.0,201.2 236.2,229.4 203.8,229.4" class="grid" stroke="#e6eaef"/><polygon points="220.0,182.5 252.5,238.8 187.5,238.8" class="grid" stroke="#e6eaef"/><polygon points="220.0,163.7 268.7,248.1 171.3,248.1" class="grid" stroke="#e6eaef"/><polygon points="220.0,145.0 285.0,257.5 155.0,257.5" class="grid" stroke="#d0d7de"/><line x1="220.0" y1="220.0" x2="220.0" y2="145.0" class="spoke" stroke="#e6eaef"/><line x1="220.0" y1="220.0" x2="285.0" y2="257.5" class="spoke" stroke="#e6eaef"/><line x1="220.0" y1="220.0" x2="155.0" y2="257.5" class="spoke" stroke="#e6eaef"/><polygon class="data-fill" fill="#2da44e"><animate attributeName="points" dur="0.9s" fill="freeze" calcMode="spline" keyTimes="0;1" keySplines="0.16 1 0.3 1" from="220.0,220.0 220.0,220.0 220.0,220.0" to="220.0,145.0 275.2,251.9 173.7,246.8"/></polygon><polygon points="220.0,145.0 275.2,251.9 173.7,246.8" class="data-stroke" stroke="#1a7f37"><animate attributeName="points" dur="0.9s" fill="freeze" calcMode="spline" keyTimes="0;1" keySplines="0.16 1 0.3 1" from="220.0,220.0 220.0,220.0 220.0,220.0" to="220.0,145.0 275.2,251.9 173.7,246.8"/></polygon><circle cx="220.0" cy="145.0" r="3.5" class="vertex" fill="#2da44e" stroke="#116329"/><circle cx="275.2" cy="251.9" r="3.5" class="vertex" fill="#2da44e" stroke="#116329"/><circle cx="173.7" cy="246.8" r="3.5" class="vertex" fill="#2da44e" stroke="#116329"/><text x="220.0" y="133.0" text-anchor="middle" font-size="13" font-weight="600" fill="#1f2328">Python</text><text x="220.0" y="148.0" text-anchor="middle" font-size="11" fill="#57606a">100</text><text x="295.4" y="273.9" text-anchor="start" font-size="13" font-weight="600" fill="#1f2328">HTML</text><text x="295.4" y="288.9" text-anchor="start" font-size="11" fill="#57606a">84.9</text><text x="144.6" y="273.9" text-anchor="end" font-size="13" font-weight="600" fill="#1f2328">Jupyter Notebook</text><text x="144.6" y="288.9" text-anchor="end" font-size="11" fill="#57606a">71.3</text></g></svg>